<?xml version="1.0" standalone="no"?>
<!DOCTYPE svg PUBLIC "-//W3C//DTD SVG 20010904//EN"
 "http://www.w3.org/TR/2001/REC-SVG-20010904/DTD/svg10.dtd">
<svg version="1.0" xmlns="http://www.w3.org/2000/svg"
 width="625.000000pt" height="625.000000pt" viewBox="0 0 625.000000 625.000000"
 preserveAspectRatio="xMidYMid meet">
<metadata>
Created by potrace 1.14, written by Peter Selinger 2001-2017
</metadata>
<g transform="translate(0.000000,625.000000) scale(0.100000,-0.100000)"
fill="#000000" stroke="none">
<path d="M2856 6243 c-4 -4 -26 -9 -49 -10 -39 -2 -74 -6 -152 -19 -16 -2 -43
-6 -60 -8 -16 -2 -31 -5 -32 -6 -2 -2 -11 -3 -20 -4 -10 -1 -23 -5 -30 -9 -6
-4 -18 -4 -27 -1 -9 3 -16 2 -16 -4 0 -6 -8 -9 -17 -8 -9 2 -37 -3 -61 -10
-24 -8 -47 -13 -50 -12 -4 1 -14 -2 -22 -5 -29 -12 -135 -41 -142 -39 -5 1 -8
-2 -8 -8 0 -6 -3 -9 -7 -8 -9 1 -59 -10 -83 -19 -8 -4 -17 -7 -20 -7 -3 -1
-16 -8 -30 -16 -14 -7 -26 -13 -27 -12 -6 3 -34 -8 -138 -54 -22 -9 -42 -18
-45 -19 -19 -5 -166 -81 -168 -87 -2 -4 -10 -8 -17 -8 -8 0 -21 -7 -29 -16 -9
-8 -16 -13 -16 -9 0 3 -13 -3 -29 -14 -16 -12 -34 -21 -40 -21 -6 0 -11 -5
-11 -11 0 -5 -4 -7 -10 -4 -5 3 -10 2 -10 -3 0 -5 -16 -17 -35 -26 -19 -9 -35
-21 -35 -27 0 -6 -5 -7 -10 -4 -6 3 -13 -1 -16 -9 -3 -9 -9 -14 -13 -11 -4 2
-19 -7 -34 -21 -15 -14 -27 -22 -27 -19 0 4 -6 0 -14 -7 -8 -7 -27 -22 -42
-33 -16 -11 -39 -30 -52 -42 -12 -13 -26 -23 -30 -23 -4 0 -19 -11 -34 -25
-14 -14 -31 -25 -38 -25 -6 0 -8 -4 -5 -10 3 -5 2 -10 -3 -10 -26 0 -348 -321
-334 -334 3 -3 -2 -6 -11 -6 -10 0 -17 -6 -17 -13 0 -7 -8 -20 -18 -28 -24
-22 -62 -72 -62 -82 0 -4 -4 -6 -9 -3 -9 6 -25 -31 -21 -49 1 -5 -2 -7 -6 -3
-6 7 -74 -73 -74 -87 0 -9 -53 -79 -63 -83 -4 -2 -5 -8 -1 -13 3 -5 0 -9 -6
-9 -6 0 -8 -4 -5 -10 3 -5 2 -10 -2 -10 -5 0 -24 -28 -43 -62 -19 -35 -40 -72
-47 -83 -7 -11 -19 -37 -29 -57 -9 -21 -21 -38 -27 -38 -6 0 -8 -3 -4 -6 3 -3
-6 -27 -19 -54 -13 -26 -24 -53 -24 -59 0 -6 -5 -11 -10 -11 -6 0 -9 -3 -8 -7
1 -9 -9 -40 -23 -66 -5 -10 -7 -22 -4 -27 4 -6 1 -10 -4 -10 -6 0 -11 -7 -11
-15 0 -8 -5 -15 -12 -15 -6 0 -9 -3 -5 -6 5 -5 -6 -41 -38 -119 -4 -11 -9 -24
-10 -30 -7 -42 -19 -75 -26 -75 -5 0 -6 -6 -3 -14 3 -8 0 -17 -5 -21 -6 -3 -9
-10 -6 -15 3 -5 0 -21 -7 -37 -6 -15 -12 -37 -14 -48 -1 -11 -5 -31 -9 -45 -9
-37 -16 -72 -19 -96 -2 -11 -6 -25 -9 -31 -3 -5 -7 -28 -8 -51 -2 -23 -5 -42
-8 -42 -6 0 -14 -74 -14 -122 1 -15 -2 -26 -6 -24 -4 3 -7 -22 -6 -55 0 -33
-4 -59 -10 -59 -6 0 -3 -5 5 -10 10 -6 11 -10 3 -10 -7 0 -13 -5 -13 -11 0 -5
6 -7 13 -3 9 6 9 4 1 -7 -16 -20 -17 -399 -1 -399 8 0 8 -3 2 -8 -11 -8 -16
-42 -6 -42 4 0 6 -20 6 -45 -1 -25 2 -50 6 -57 4 -7 3 -21 -3 -31 -7 -14 -7
-17 1 -13 7 5 11 -8 12 -38 1 -43 4 -63 9 -68 3 -5 9 -43 12 -75 1 -18 6 -33
11 -33 4 0 6 -4 3 -8 -3 -5 3 -43 13 -85 10 -42 16 -79 13 -82 -3 -3 -1 -5 4
-5 5 0 11 -14 12 -32 2 -18 8 -36 15 -40 7 -4 9 -8 5 -8 -4 0 0 -21 8 -47 8
-27 16 -52 17 -58 2 -5 6 -15 10 -22 4 -6 8 -23 9 -37 1 -14 6 -26 10 -26 4 0
8 -9 8 -19 0 -11 4 -23 10 -26 5 -3 10 -12 10 -19 0 -8 9 -34 20 -60 12 -25
21 -49 21 -53 0 -5 8 -17 17 -27 9 -11 12 -17 6 -13 -12 7 55 -135 69 -144 4
-3 9 -16 10 -27 1 -12 4 -22 7 -22 3 0 16 -21 30 -48 13 -26 29 -50 35 -54 5
-4 6 -8 2 -8 -4 0 -3 -6 3 -12 6 -7 25 -35 42 -63 55 -88 121 -185 140 -205
10 -10 18 -23 18 -27 0 -5 8 -16 18 -24 9 -9 24 -26 32 -39 8 -13 27 -36 43
-52 15 -16 27 -31 27 -34 0 -3 18 -23 40 -45 21 -21 37 -39 35 -39 -2 0 7 -11
21 -25 14 -14 29 -25 34 -25 6 0 10 -5 10 -11 0 -6 25 -34 54 -63 122 -114
156 -145 156 -139 0 3 10 -5 23 -18 12 -13 49 -44 82 -69 33 -25 62 -48 63
-52 2 -5 9 -8 16 -8 6 0 18 -9 26 -20 8 -11 20 -20 27 -20 7 0 21 -9 30 -20
10 -11 26 -20 36 -20 10 0 15 -4 12 -10 -3 -5 0 -10 8 -10 7 0 22 -8 33 -17
11 -10 26 -19 34 -21 8 -2 17 -7 20 -10 6 -8 35 -25 95 -56 22 -12 42 -23 45
-26 12 -12 93 -50 106 -50 8 0 14 -4 14 -9 0 -10 69 -37 83 -33 4 1 7 -2 7 -6
0 -9 60 -33 73 -29 5 1 13 -6 18 -16 6 -9 14 -15 20 -12 5 3 23 -1 41 -9 49
-23 179 -66 200 -66 10 0 18 -4 18 -8 0 -5 6 -9 13 -10 24 -3 102 -19 102 -22
0 -1 7 -3 15 -5 8 -2 29 -8 45 -13 17 -5 38 -8 48 -6 9 1 17 -1 17 -6 0 -4 16
-8 36 -8 20 0 39 -4 43 -8 3 -5 26 -9 51 -9 25 0 54 -5 66 -10 12 -6 40 -10
63 -10 22 0 41 -2 41 -5 0 -3 12 -5 28 -4 15 1 33 -3 40 -9 6 -5 12 -5 12 0 0
5 9 9 20 10 11 1 20 -2 20 -5 0 -4 9 -8 20 -9 13 -1 18 2 13 10 -4 7 0 6 10
-2 14 -11 20 -11 34 0 10 8 14 9 10 2 -10 -17 291 -17 312 0 10 8 13 8 8 1 -4
-7 2 -11 18 -11 15 0 22 4 18 11 -3 6 0 6 8 -1 14 -14 33 -18 26 -5 -3 4 16 7
41 8 47 1 105 7 192 20 25 4 53 8 63 8 9 0 17 3 17 7 0 3 11 5 25 4 14 -2 25
0 25 4 0 4 10 7 23 6 12 -1 27 1 32 5 6 3 23 7 38 8 16 1 34 5 40 9 13 8 30
12 67 17 14 1 35 8 48 15 12 6 27 9 32 6 6 -3 10 -1 10 4 0 6 3 10 8 9 12 -4
102 26 102 33 0 4 9 5 20 2 11 -3 20 0 20 6 0 6 3 10 8 9 14 -4 112 34 112 43
0 6 5 7 10 4 6 -3 16 -3 23 2 6 4 14 8 17 8 21 3 50 18 50 26 0 6 4 8 9 4 5
-3 12 -1 16 5 4 6 11 8 16 5 5 -4 9 -1 9 4 0 6 6 11 13 11 21 0 117 51 117 61
0 6 5 7 10 4 6 -3 22 2 38 12 15 11 48 30 74 43 26 13 44 28 41 34 -3 5 -1 6
4 3 6 -4 22 2 36 13 14 11 30 20 36 20 6 0 11 5 11 10 0 6 7 10 15 10 8 0 15
5 15 10 0 6 7 10 15 10 8 0 15 5 15 12 0 6 3 8 6 5 4 -4 15 3 25 15 11 11 19
18 19 15 0 -4 11 3 24 14 13 12 27 21 30 20 3 -1 15 7 25 17 10 9 30 26 43 37
64 52 113 94 161 137 29 26 55 48 60 48 4 0 7 7 7 15 0 8 5 15 11 15 11 0 100
89 174 175 118 137 111 128 112 138 1 5 8 14 16 20 19 16 145 191 159 223 6
13 14 24 18 24 4 0 10 8 14 18 5 17 26 53 36 62 3 3 22 37 42 77 20 39 39 70
42 67 3 -2 4 -1 1 2 -2 4 1 16 7 28 7 11 11 24 10 29 -1 4 3 7 8 7 6 0 10 9
10 20 0 11 4 20 8 20 7 0 29 44 37 75 2 6 12 30 23 55 26 61 35 82 38 99 1 8
8 17 14 21 6 4 8 14 4 23 -3 10 -1 17 5 17 6 0 10 3 9 8 -2 9 34 125 42 132 6
6 11 36 11 62 0 10 5 20 10 23 5 4 7 11 4 16 -4 5 -2 9 2 9 5 0 8 12 8 28 -1
15 1 32 4 37 3 6 11 25 17 42 9 24 9 31 0 26 -8 -5 -8 -3 -1 8 6 8 12 28 14
44 2 17 6 32 10 35 3 3 6 21 6 40 0 19 2 40 5 45 2 6 5 15 6 20 5 32 16 134
17 157 1 15 6 30 10 34 4 4 2 13 -4 21 -8 8 -8 13 -1 13 11 0 11 18 -1 36 -3
6 -3 14 0 18 4 4 9 18 11 32 2 19 -1 24 -10 18 -10 -6 -11 -5 -1 7 17 21 16
299 0 299 -9 0 -9 2 -1 8 13 9 14 42 1 42 -5 0 -4 7 4 16 8 10 9 18 3 22 -5 4
-10 29 -9 55 0 27 -3 51 -6 53 -4 2 -5 15 -4 29 2 14 0 27 -5 30 -4 3 -6 14
-3 25 3 11 0 27 -7 35 -10 12 -10 15 0 15 9 0 9 4 3 13 -6 6 -10 19 -11 27 -1
32 -9 77 -16 88 -4 7 -5 12 -3 12 3 0 -1 21 -9 46 -7 26 -11 50 -9 54 3 5 0
12 -6 15 -5 4 -8 13 -5 20 2 7 2 16 -2 19 -3 4 -7 14 -8 22 -1 9 -6 23 -10 32
-11 25 -10 23 -19 70 -4 23 -11 42 -16 42 -5 0 -8 3 -7 8 4 14 -14 72 -22 72
-4 0 -7 11 -5 25 1 14 -1 25 -4 25 -6 0 -32 61 -37 85 -1 6 -13 34 -28 64 -14
30 -26 60 -26 67 0 7 -5 14 -10 16 -6 2 -12 14 -15 27 -2 14 -10 28 -16 31 -6
4 -10 11 -10 16 2 12 -30 75 -47 92 -7 8 -10 18 -7 23 4 5 2 9 -4 9 -5 0 -15
16 -22 35 -7 19 -17 35 -21 35 -4 0 -8 7 -8 15 0 8 -5 15 -12 15 -6 0 -9 3 -5
6 3 3 -1 13 -9 22 -8 10 -15 22 -16 27 -1 6 -9 18 -18 28 -9 9 -23 30 -31 45
-8 15 -17 29 -20 32 -3 3 -25 32 -49 65 -24 33 -47 62 -52 63 -4 2 -8 8 -8 14
0 5 -16 26 -35 46 -19 20 -38 45 -41 55 -3 9 -10 15 -15 12 -5 -4 -9 -1 -9 5
0 19 -214 240 -232 240 -5 0 -6 5 -3 10 3 6 3 10 -2 10 -4 0 -29 19 -55 43
-57 50 -94 81 -179 147 -18 14 -37 30 -43 35 -6 6 -23 16 -38 24 -16 8 -28 18
-28 23 0 4 -6 8 -13 8 -8 0 -22 9 -32 20 -10 11 -24 20 -32 20 -7 0 -13 5 -13
10 0 6 -6 10 -14 10 -8 0 -16 4 -18 9 -1 5 -10 11 -18 13 -14 3 -29 13 -55 36
-7 6 -21 12 -29 12 -9 0 -16 4 -16 9 0 5 -10 13 -22 17 -13 4 -38 17 -57 30
-19 13 -38 21 -43 18 -4 -3 -8 0 -8 5 0 6 -7 11 -15 11 -8 0 -15 5 -15 12 0 6
-3 8 -6 5 -4 -4 -19 0 -33 8 -48 26 -159 74 -185 81 -14 3 -26 10 -26 15 0 4
-9 6 -20 4 -11 -2 -20 -1 -20 3 0 4 -21 14 -47 21 -27 8 -53 18 -60 23 -6 5
-17 8 -25 8 -19 -3 -58 11 -54 19 3 4 -8 6 -25 5 -16 -1 -29 1 -29 5 0 4 -10
7 -22 8 -11 1 -25 8 -29 15 -7 10 -9 11 -9 0 0 -10 -5 -10 -21 -2 -11 7 -32
14 -45 16 -70 12 -113 22 -124 29 -6 3 -10 0 -10 -7 0 -11 -2 -11 -9 0 -4 7
-27 14 -49 15 -23 1 -42 4 -42 7 0 3 -8 6 -17 6 -10 1 -43 4 -73 8 -30 4 -80
9 -110 11 -30 2 -70 6 -88 10 -26 4 -32 3 -26 -7 6 -10 5 -10 -7 -2 -9 8 -78
12 -204 12 -118 0 -184 -3 -175 -9 8 -5 11 -9 5 -9 -5 0 -17 4 -25 10 -9 6
-20 5 -29 -3 -12 -9 -13 -9 -7 1 8 13 4 16 -8 5z"/>
</g>
</svg>
